<svg width="139" height="15" viewBox="0 0 139 15" fill="none" xmlns="http://www.w3.org/2000/svg">
<g clip-path="url(#clip0_62_2)">
<path d="M7.27306 14.7194L0.942627 0.398422H4.19638L9.61931 13.3249H8.60113L14.0019 0.398422H17.2114L10.9473 14.7194H7.27306ZM19.7876 0.398422H22.7315V14.7194H19.7876V0.398422ZM26.5434 14.7194V0.398422H34.7996C36.7179 0.398422 38.1714 0.723059 39.16 1.37233C40.1635 2.00685 40.6652 2.95863 40.6652 4.22767C40.6652 5.03926 40.466 5.68116 40.0675 6.15336C39.6691 6.6108 39.101 6.9502 38.3632 7.17154C37.6401 7.39289 36.7843 7.53307 35.7956 7.59209L35.8841 7.43715C36.6072 7.45191 37.286 7.50356 37.9205 7.59209C38.5698 7.68063 39.1379 7.84295 39.6249 8.07905C40.1118 8.31515 40.4955 8.64717 40.7758 9.0751C41.0562 9.48827 41.1964 10.0343 41.1964 10.713C41.1964 11.5984 40.9603 12.3362 40.4881 12.9265C40.0159 13.502 39.3592 13.9373 38.5181 14.2324C37.677 14.5275 36.7031 14.6899 35.5964 14.7194H26.5434ZM29.4873 12.2846H35.2865C36.2162 12.2846 36.9318 12.137 37.4335 11.8419C37.9353 11.532 38.1861 11.0451 38.1861 10.381C38.1861 9.89407 38.0386 9.53992 37.7434 9.31858C37.4483 9.09723 37.0573 8.96443 36.5703 8.92016C36.0833 8.86113 35.5595 8.83162 34.9988 8.83162H29.4873V12.2846ZM29.4873 6.46324H34.6889C35.6185 6.46324 36.3342 6.33043 36.8359 6.06482C37.3376 5.78445 37.5885 5.31225 37.5885 4.64822C37.5885 3.98419 37.3376 3.51937 36.8359 3.25375C36.3342 2.97339 35.6702 2.8332 34.8438 2.8332H29.4873V6.46324ZM46.7582 8.74308V12.2625H57.8032V14.7194H43.8143V0.398422H57.7811V2.85534H46.7582V6.41897H55.789V8.74308H46.7582ZM77.0347 0.398422H92.1304V2.85534H77.0347V0.398422ZM83.1217 2.54545H86.0656V14.7194H83.1217V2.54545ZM97.2142 8.74308V12.2625H108.259V14.7194H94.2703V0.398422H108.237V2.85534H97.2142V6.41897H106.245V8.74308H97.2142ZM114.226 0.398422V12.2625H123.744V14.7194H111.282V0.398422H114.226ZM129.422 0.398422V12.2625H138.939V14.7194H126.478V0.398422H129.422Z" fill="white"/>
<path d="M66.9349 14.9628C66.2561 14.9628 65.6068 14.8743 64.9871 14.6972C64.3821 14.5202 63.8508 14.2693 63.3934 13.9447C62.9359 13.62 62.5744 13.229 62.3088 12.7715C62.0432 12.2993 61.9104 11.7755 61.9104 11.2C61.9104 10.4917 62.0801 9.89407 62.4195 9.40711C62.7589 8.9054 63.2237 8.4996 63.8139 8.18972C64.4189 7.87984 65.1125 7.65112 65.8946 7.50356C66.6766 7.34124 67.5104 7.24532 68.3958 7.21581L68.4843 7.34862C67.6432 7.3191 66.8537 7.2527 66.1159 7.14941C65.3929 7.03136 64.7583 6.8469 64.2124 6.59605C63.6811 6.34519 63.2606 6.02055 62.9507 5.62213C62.6556 5.20896 62.508 4.69249 62.508 4.07273C62.508 3.27589 62.7589 2.58234 63.2606 1.99209C63.7623 1.38709 64.4853 0.922266 65.4297 0.597629C66.3741 0.272991 67.4956 0.110672 68.7942 0.110672C69.6943 0.110672 70.5133 0.19921 71.2511 0.376286C72.0037 0.55336 72.6456 0.826351 73.1768 1.19526C73.7228 1.54941 74.1433 1.99947 74.4384 2.54545C74.7336 3.07668 74.8811 3.70382 74.8811 4.42688H72.1807C72.166 3.82187 71.8561 3.36443 71.2511 3.05455C70.6608 2.72991 69.8566 2.56759 68.8384 2.56759C67.7465 2.56759 66.9201 2.74466 66.3594 3.09881C65.7987 3.43821 65.5183 3.91041 65.5183 4.51541C65.5183 4.94335 65.6511 5.31225 65.9167 5.62213C66.1823 5.93202 66.5881 6.16812 67.1341 6.33043C67.6948 6.49275 68.3958 6.57391 69.2369 6.57391H77.8471V8.23399H75.0582V14.7194H72.3799C72.3209 14.2914 72.2766 13.8709 72.2471 13.4577C72.2176 13.0298 72.1955 12.5576 72.1807 12.0411C72.1807 11.5099 72.1807 10.8754 72.1807 10.1375L72.3799 10.7352C72.2619 11.2369 72.0774 11.7386 71.8266 12.2403C71.5905 12.742 71.2585 13.1995 70.8305 13.6126C70.4174 14.0258 69.8861 14.3578 69.2369 14.6087C68.6023 14.8448 67.835 14.9628 66.9349 14.9628ZM68.1523 12.7494C69.0524 12.7494 69.7976 12.5945 70.3878 12.2846C70.9781 11.9599 71.4208 11.5468 71.7159 11.0451C72.0258 10.5286 72.1807 9.99737 72.1807 9.45138V8.23399H69.2369C67.9531 8.23399 66.9201 8.42582 66.138 8.80949C65.356 9.17839 64.9649 9.76864 64.9649 10.5802C64.9649 11.2148 65.2379 11.7386 65.7839 12.1518C66.3299 12.5502 67.1193 12.7494 68.1523 12.7494Z" fill="#0033FF"/>
</g>
<defs>
<clipPath id="clip0_62_2">
<rect width="139" height="15" fill="white"/>
</clipPath>
</defs>
</svg>
