<svg width="139" height="15" viewBox="0 0 139 15" fill="none" xmlns="http://www.w3.org/2000/svg">
<path d="M7.27312 14.7194L0.942688 0.398419H4.19644L9.61937 13.3249H8.60119L14.002 0.398419H17.2115L10.9474 14.7194H7.27312ZM19.7877 0.398419H22.7316V14.7194H19.7877V0.398419ZM26.5435 14.7194V0.398419H34.7997C36.718 0.398419 38.1715 0.723056 39.1601 1.37233C40.1636 2.00685 40.6653 2.95863 40.6653 4.22767C40.6653 5.03926 40.4661 5.68116 40.0676 6.15336C39.6692 6.6108 39.1011 6.9502 38.3633 7.17154C37.6402 7.39289 36.7844 7.53307 35.7957 7.59209L35.8842 7.43715C36.6073 7.45191 37.2861 7.50356 37.9206 7.59209C38.5699 7.68063 39.138 7.84295 39.625 8.07905C40.1119 8.31515 40.4956 8.64717 40.7759 9.0751C41.0563 9.48827 41.1965 10.0343 41.1965 10.713C41.1965 11.5984 40.9604 12.3362 40.4882 12.9265C40.016 13.502 39.3593 13.9373 38.5182 14.2324C37.6771 14.5275 36.7032 14.6899 35.5965 14.7194H26.5435ZM29.4874 12.2846H35.2866C36.2163 12.2846 36.9319 12.137 37.4336 11.8419C37.9354 11.532 38.1862 11.0451 38.1862 10.381C38.1862 9.89407 38.0387 9.53992 37.7435 9.31858C37.4484 9.09723 37.0574 8.96443 36.5704 8.92016C36.0834 8.86113 35.5596 8.83162 34.9989 8.83162H29.4874V12.2846ZM29.4874 6.46324H34.689C35.6186 6.46324 36.3343 6.33043 36.836 6.06482C37.3377 5.78445 37.5886 5.31225 37.5886 4.64822C37.5886 3.98419 37.3377 3.51937 36.836 3.25375C36.3343 2.97339 35.6703 2.8332 34.8439 2.8332H29.4874V6.46324ZM46.7583 8.74308V12.2625H57.8033V14.7194H43.8144V0.398419H57.7812V2.85534H46.7583V6.41897H55.7891V8.74308H46.7583ZM77.0348 0.398419H92.1305V2.85534H77.0348V0.398419ZM83.1218 2.54545H86.0657V14.7194H83.1218V2.54545ZM97.2143 8.74308V12.2625H108.259V14.7194H94.2704V0.398419H108.237V2.85534H97.2143V6.41897H106.245V8.74308H97.2143ZM114.226 0.398419V12.2625H123.744V14.7194H111.282V0.398419H114.226ZM129.422 0.398419V12.2625H138.939V14.7194H126.478V0.398419H129.422Z" fill="black"/>
<path d="M66.935 14.9628C66.2562 14.9628 65.6069 14.8743 64.9872 14.6972C64.3822 14.5202 63.8509 14.2693 63.3935 13.9447C62.936 13.62 62.5745 13.229 62.3089 12.7715C62.0433 12.2993 61.9105 11.7755 61.9105 11.2C61.9105 10.4917 62.0802 9.89407 62.4196 9.40711C62.759 8.9054 63.2238 8.4996 63.814 8.18972C64.419 7.87984 65.1126 7.65112 65.8947 7.50356C66.6767 7.34124 67.5105 7.24532 68.3959 7.21581L68.4844 7.34862C67.6433 7.3191 66.8538 7.2527 66.116 7.14941C65.393 7.03136 64.7584 6.8469 64.2125 6.59605C63.6812 6.34519 63.2607 6.02055 62.9508 5.62213C62.6557 5.20896 62.5081 4.69249 62.5081 4.07273C62.5081 3.27589 62.759 2.58234 63.2607 1.99209C63.7624 1.38709 64.4854 0.922265 65.4298 0.597628C66.3742 0.27299 67.4957 0.110671 68.7943 0.110671C69.6944 0.110671 70.5134 0.199209 71.2512 0.376285C72.0038 0.553359 72.6457 0.82635 73.1769 1.19526C73.7229 1.54941 74.1434 1.99947 74.4385 2.54545C74.7337 3.07668 74.8812 3.70382 74.8812 4.42688H72.1808C72.1661 3.82187 71.8562 3.36443 71.2512 3.05455C70.6609 2.72991 69.8567 2.56759 68.8385 2.56759C67.7466 2.56759 66.9202 2.74466 66.3595 3.09881C65.7988 3.43821 65.5184 3.91041 65.5184 4.51541C65.5184 4.94335 65.6512 5.31225 65.9168 5.62213C66.1824 5.93202 66.5882 6.16812 67.1342 6.33043C67.6949 6.49275 68.3959 6.57391 69.237 6.57391H77.8472V8.23399H75.0583V14.7194H72.38C72.321 14.2914 72.2767 13.8709 72.2472 13.4577C72.2177 13.0298 72.1956 12.5576 72.1808 12.0411C72.1808 11.5099 72.1808 10.8754 72.1808 10.1375L72.38 10.7352C72.262 11.2369 72.0775 11.7386 71.8267 12.2403C71.5906 12.742 71.2586 13.1995 70.8306 13.6126C70.4175 14.0258 69.8862 14.3578 69.237 14.6087C68.6024 14.8448 67.8351 14.9628 66.935 14.9628ZM68.1524 12.7494C69.0525 12.7494 69.7977 12.5945 70.3879 12.2846C70.9782 11.9599 71.4209 11.5468 71.716 11.0451C72.0259 10.5286 72.1808 9.99737 72.1808 9.45138V8.23399H69.237C67.9532 8.23399 66.9202 8.42582 66.1381 8.80949C65.3561 9.17839 64.965 9.76864 64.965 10.5802C64.965 11.2148 65.238 11.7386 65.784 12.1518C66.33 12.5502 67.1194 12.7494 68.1524 12.7494Z" fill="#0033FF"/>
</svg>
