<?xml version="1.0" encoding="UTF-8"?>
<svg xmlns="http://www.w3.org/2000/svg" width="25" height="25" viewBox="0 0 25 25" fill="none">
  <path d="M19.8811 23.391C20.4372 20.8214 21.1035 18.2657 21.5011 15.661C21.9535 12.6994 22.7928 5.73772 20.2094 3.67027C17.6324 1.60854 12.5806 4.71543 10.2534 6.20967C7.32457 8.09013 4.54593 10.3691 2 12.7353C2.44746 12.7443 2.91451 12.3769 3.33257 12.1899C9.33486 9.50925 16.3456 7.5553 18.7151 15.6977C19.4737 18.3049 19.3373 20.4385 19.646 23.0146C19.6541 23.0856 19.7219 23.5568 19.8803 23.391H19.8811ZM16.6166 21.4305L16.8338 21.3121C16.735 19.1157 16.7563 16.7984 15.8124 14.7628C13.7604 10.3348 8.44729 12.6439 5.26529 14.3292C5.19833 14.5693 5.46942 14.5064 5.63109 14.4901C6.9457 14.3611 7.96554 13.9887 9.38712 14.0834C13.7098 14.3725 15.2735 17.8599 16.615 21.4314L16.6166 21.4305Z" fill="#0033FF"></path>
  <path d="M19.881 23.391C19.7226 23.556 19.6549 23.0857 19.6467 23.0146C19.338 20.4393 19.4744 18.3049 18.7158 15.6977C16.3463 7.55532 9.33559 9.50845 3.3333 12.1899C2.91524 12.3769 2.44819 12.7443 2.00073 12.7354C4.54666 10.3691 7.3253 8.09015 10.2542 6.20969C12.5813 4.71626 17.6323 1.60856 20.2101 3.67029C22.7936 5.73774 21.9542 12.6994 21.5018 15.661C21.1042 18.2649 20.4371 20.8214 19.8818 23.391H19.881Z" fill="#0033FF"></path>
  <path d="M16.6167 21.4306C15.2752 17.8591 13.7107 14.3717 9.38885 14.0826C7.96728 13.9879 6.94662 14.3603 5.63283 14.4893C5.47115 14.5048 5.20007 14.5685 5.26702 14.3284C8.44903 12.6431 13.7622 10.3348 15.8141 14.762C16.758 16.7984 16.7368 19.1157 16.8356 21.3113L16.6184 21.4297L16.6167 21.4306Z" fill="#0033FF"></path>
</svg>
