<?xml version="1.0" encoding="UTF-8"?>
<svg xmlns="http://www.w3.org/2000/svg" width="16" height="16" viewBox="0 0 16 16" fill="none">
  <g clip-path="url(#clip0_240_171)">
    <path d="M11.5957 5.55242L11.5899 5.54991C11.5865 5.54866 11.5832 5.54741 11.5803 5.54449C11.5706 5.53407 11.5662 5.51973 11.5686 5.50568L11.8915 3.53359L13.4058 5.04667L11.8309 5.71599C11.8265 5.71776 11.8219 5.71861 11.8171 5.7185H11.8109C11.8088 5.71724 11.8067 5.71558 11.8025 5.7114C11.7439 5.64622 11.6738 5.59233 11.5957 5.55242ZM13.7922 5.43224L15.4114 7.04963C15.7477 7.38597 15.916 7.55371 15.9774 7.74817C15.9866 7.77696 15.9942 7.80575 16 7.83538L12.1304 6.19837C12.1284 6.19752 12.1263 6.19668 12.1242 6.19587C12.1087 6.18961 12.0908 6.18252 12.0908 6.16666C12.0908 6.1508 12.1091 6.14329 12.1246 6.13703L12.1296 6.13495L13.7922 5.43224ZM15.934 8.35448C15.8504 8.51138 15.6875 8.67412 15.4118 8.94995L13.5863 10.7731L11.2252 10.2819L11.2127 10.2794C11.1918 10.2761 11.1696 10.2723 11.1696 10.2535C11.1515 10.0569 11.0524 9.87657 10.896 9.75572C10.8864 9.74613 10.8889 9.73111 10.8918 9.71733C10.8918 9.71525 10.8918 9.71316 10.8927 9.71149L11.3367 6.98829L11.3384 6.97911C11.3409 6.95825 11.3447 6.93405 11.3635 6.93405C11.5557 6.91016 11.7303 6.81018 11.848 6.65655C11.8518 6.65238 11.8543 6.64779 11.8593 6.64529C11.8727 6.63903 11.8886 6.64529 11.9024 6.65113L15.934 8.35448ZM13.1664 11.1924L10.1645 14.191L10.6784 11.0364L10.6792 11.0322C10.6796 11.028 10.6805 11.0239 10.6817 11.0201C10.6859 11.0101 10.6967 11.0059 10.7072 11.0017L10.7122 10.9997C10.8247 10.9517 10.9242 10.8778 11.0025 10.7839C11.0126 10.7722 11.0247 10.761 11.0401 10.7589C11.0441 10.7582 11.0482 10.7582 11.0522 10.7589L13.1664 11.1924ZM9.52915 14.8257L9.19078 15.1637L5.44988 9.76324C5.44853 9.76126 5.44714 9.75931 5.44571 9.75739C5.43986 9.74947 5.43359 9.74154 5.43484 9.73236C5.43526 9.72568 5.43944 9.71984 5.44404 9.71483L5.44821 9.70941C5.45949 9.69272 5.4691 9.67602 5.47954 9.65808L5.4879 9.64348L5.48915 9.64222C5.495 9.63221 5.50043 9.62261 5.51046 9.61719C5.51923 9.61301 5.53134 9.61468 5.54095 9.61677L9.68539 10.4705C9.69697 10.4723 9.70791 10.4771 9.71714 10.4843C9.72257 10.4897 9.72382 10.4956 9.72507 10.5022C9.78367 10.7237 9.94254 10.9051 10.1545 10.9926C10.1662 10.9984 10.1612 11.0113 10.1558 11.0251C10.1531 11.0311 10.151 11.0374 10.1495 11.0439C10.0973 11.361 9.64946 14.0892 9.52915 14.8257ZM8.82233 15.5314C8.57294 15.778 8.42589 15.9086 8.25963 15.9612C8.09569 16.0129 7.91976 16.0129 7.75583 15.9612C7.56116 15.8994 7.39281 15.7317 7.05653 15.3953L3.29976 11.6427L4.28104 10.1225C4.28563 10.115 4.29023 10.1083 4.29775 10.1029C4.30819 10.0954 4.32323 10.0987 4.33576 10.1029C4.56099 10.1708 4.80282 10.1585 5.02003 10.0683C5.0313 10.0641 5.04258 10.0612 5.05136 10.0691C5.05574 10.0731 5.05967 10.0776 5.06305 10.0825L8.82233 15.5314ZM2.93757 11.2809L2.07577 10.42L3.77766 9.6948C3.78201 9.69291 3.7867 9.69191 3.79144 9.69188C3.80564 9.69188 3.814 9.70607 3.82152 9.719C3.83862 9.74529 3.85674 9.7709 3.87583 9.79578L3.88126 9.80246C3.88627 9.80955 3.88293 9.81665 3.87791 9.82333L2.93757 11.2809ZM1.69437 10.0391L0.604057 8.94995C0.418579 8.76467 0.284066 8.63031 0.190491 8.51472L3.5057 9.20157C3.50987 9.20234 3.51405 9.20304 3.51824 9.20366C3.53871 9.207 3.56126 9.21075 3.56126 9.22995C3.56126 9.25081 3.53662 9.26041 3.51573 9.26834L3.50612 9.27251L1.69437 10.0391ZM0 7.95472C0.00377814 7.88457 0.0164104 7.81517 0.0375969 7.74817C0.099423 7.55371 0.267356 7.38597 0.604057 7.04963L1.99932 5.6559C2.64174 6.58723 3.2859 7.51736 3.9318 8.44629C3.94308 8.46131 3.95561 8.478 3.94266 8.49052C3.88167 8.5577 3.82068 8.63114 3.77766 8.71084C3.77299 8.72109 3.7658 8.72999 3.75677 8.73672C3.75134 8.74005 3.74549 8.7388 3.73922 8.73755L0 7.95472ZM2.37278 5.28285L4.24887 3.40883C4.42516 3.48602 5.06681 3.75684 5.64079 3.99887C6.07525 4.18247 6.47127 4.34939 6.59575 4.40363C6.60829 4.40864 6.61957 4.41365 6.625 4.42617C6.62834 4.43368 6.62667 4.44327 6.625 4.4512C6.56467 4.72599 6.64678 5.01266 6.84348 5.214C6.85601 5.22652 6.84348 5.24446 6.83262 5.2599L6.82677 5.26866L4.92186 8.21595C4.91684 8.22429 4.91225 8.23138 4.90389 8.23681C4.89387 8.24307 4.87966 8.24015 4.86797 8.23723C4.79388 8.21784 4.71771 8.20747 4.64113 8.20635C4.57262 8.20635 4.49826 8.21887 4.42307 8.23264C4.41472 8.23389 4.40678 8.23556 4.40009 8.23055C4.39271 8.22452 4.38636 8.21734 4.3813 8.20927L2.37278 5.28285ZM4.62776 3.03035L7.05653 0.604256C7.39281 0.268342 7.56116 0.100177 7.75583 0.0388357C7.91976 -0.0129452 8.09569 -0.0129452 8.25963 0.0388357C8.4543 0.100177 8.62265 0.268342 8.95893 0.604256L9.48529 1.13003L7.75792 3.80233C7.75364 3.8101 7.74781 3.81692 7.74079 3.82236C7.73035 3.82945 7.71573 3.82653 7.70319 3.82236C7.42671 3.73854 7.12663 3.79631 6.90113 3.97675C6.88985 3.98843 6.87314 3.98176 6.85893 3.9755C6.63335 3.87744 4.87883 3.13676 4.62776 3.03035ZM9.85207 1.49641L11.447 3.0896L11.0627 5.46729V5.47355C11.0623 5.47897 11.0612 5.48431 11.0593 5.48941C11.0552 5.49775 11.0468 5.49942 11.0385 5.50193C10.9563 5.52679 10.8789 5.5653 10.8095 5.61584C10.8066 5.61797 10.8038 5.62034 10.8012 5.62294C10.7966 5.62795 10.792 5.63254 10.7845 5.63337C10.7784 5.63356 10.7723 5.63257 10.7665 5.63045L8.33607 4.59892L8.33148 4.59684C8.31602 4.59058 8.29764 4.58307 8.29764 4.56721C8.28336 4.43192 8.23912 4.3015 8.16814 4.18539C8.15644 4.1662 8.14349 4.14617 8.15352 4.12656L9.85207 1.49641ZM8.2095 5.08756L10.4879 6.05149C10.5004 6.05733 10.5142 6.06276 10.5196 6.07569C10.5218 6.08347 10.5218 6.0917 10.5196 6.09948C10.5129 6.13286 10.5071 6.17083 10.5071 6.20922V6.27307C10.5071 6.28892 10.4908 6.2956 10.4758 6.30186L10.4712 6.30353C10.1102 6.45751 5.40393 8.46214 5.39683 8.46214C5.38973 8.46214 5.38221 8.46214 5.37511 8.45505C5.36258 8.44253 5.37511 8.425 5.38639 8.40915C5.38838 8.4064 5.39033 8.40361 5.39224 8.4008L7.26456 5.50485L7.2679 5.49984C7.27877 5.48231 7.2913 5.4627 7.31135 5.4627L7.33015 5.46562C7.37276 5.47146 7.41035 5.47689 7.44837 5.47689C7.73244 5.47689 7.99561 5.33877 8.15436 5.10258C8.15814 5.09628 8.16294 5.09064 8.16856 5.08589C8.17984 5.07755 8.19655 5.08172 8.2095 5.08756ZM5.60027 8.92032L10.7302 6.735C10.7302 6.735 10.7377 6.735 10.7448 6.7421C10.7728 6.77005 10.7966 6.78883 10.8196 6.80636L10.8308 6.81345C10.8413 6.81929 10.8517 6.82597 10.8526 6.83682C10.8526 6.84099 10.8526 6.8435 10.8517 6.84725L10.4123 9.54374L10.4106 9.55459C10.4077 9.57546 10.4047 9.59924 10.3851 9.59924C10.1472 9.61528 9.93262 9.74753 9.81155 9.95268L9.80946 9.95602C9.80361 9.96562 9.79818 9.9748 9.78857 9.97981C9.7798 9.98398 9.76852 9.98231 9.75933 9.98022L5.66836 9.13731C5.66419 9.13647 5.60487 8.92074 5.60027 8.92032Z" fill="#0033FF"></path>
  </g>
  <defs>
    <clipPath id="clip0_240_171">
      <rect width="16" height="16" fill="white"></rect>
    </clipPath>
  </defs>
</svg>
