<?xml version="1.0" encoding="UTF-8"?>
<svg xmlns="http://www.w3.org/2000/svg" width="12" height="12" viewBox="0 0 12 12" fill="none">
  <path d="M5.939 3.8805H1.741C1.6445 3.88136 1.54878 3.86319 1.45931 3.82704C1.36983 3.79088 1.28836 3.73745 1.21954 3.6698C1.15073 3.60214 1.09592 3.52159 1.05825 3.43274C1.02058 3.3439 1.00078 3.2485 1 3.152V0.7285C1 0.322 1.335 0 1.741 0H5.1975C5.611 0 5.939 0.329 5.939 0.7285V3.8805ZM10.441 8.1075H5.9435V3.875H10.441C10.876 3.875 11.235 4.2335 11.235 4.668V7.315C11.235 7.7575 10.8765 8.1075 10.441 8.1075ZM5.1975 12H1.741C1.335 12 1 11.6715 1 11.273V8.8465C1 8.448 1.335 8.1195 1.741 8.1195H5.939V11.273C5.939 11.6715 5.604 12 5.1975 12Z" fill="#0033FF"></path>
</svg>
