<?xml version="1.0" encoding="UTF-8"?>
<svg xmlns="http://www.w3.org/2000/svg" width="24" height="24" viewBox="0 0 24 24" fill="none">
  <path fill-rule="evenodd" clip-rule="evenodd" d="M11.5 5C8.43333 5 6.51667 6.53333 5.75 9.6C6.9 8.06667 8.24167 7.49167 9.775 7.875C10.6499 8.0935 11.2751 8.72856 11.9672 9.43091C13.0947 10.5754 14.3997 11.9 17.25 11.9C20.3167 11.9 22.2333 10.3667 23 7.3C21.85 8.83333 20.5083 9.40833 18.975 9.025C18.1001 8.8065 17.4749 8.17144 16.7828 7.46909C15.6553 6.32463 14.3503 5 11.5 5ZM5.75 11.9C2.68333 11.9 0.766667 13.4333 0 16.5C1.15 14.9667 2.49167 14.3917 4.025 14.775C4.89985 14.9939 5.52511 15.6286 6.21724 16.3309C7.34467 17.4754 8.6497 18.8 11.5 18.8C14.5667 18.8 16.4833 17.2667 17.25 14.2C16.1 15.7333 14.7583 16.3083 13.225 15.925C12.3501 15.7065 11.7249 15.0714 11.0328 14.3691C9.90533 13.2246 8.6003 11.9 5.75 11.9Z" fill="#0033FF"></path>
</svg>
