<svg width="12" height="12" viewBox="0 0 12 12" fill="none" xmlns="http://www.w3.org/2000/svg">
<path fill-rule="evenodd" clip-rule="evenodd" d="M6.65338 9.74303C5.92795 9.74303 5.21571 9.48549 4.80684 8.93179L4.66262 9.58481L2 10.9657L2.28744 9.58481L4.2265 1H6.60062L5.91476 4.02593C6.46872 3.43362 6.98311 3.21472 7.64258 3.21472C9.06709 3.21472 10.0167 4.12894 10.0167 5.80288C10.0167 7.52827 8.92199 9.74303 6.65338 9.74303ZM7.56347 6.29214C7.56347 7.09048 6.98311 7.69566 6.23131 7.69566C5.80924 7.69566 5.42675 7.54118 5.17614 7.27078L5.54545 5.68697C5.82243 5.41657 6.13898 5.26206 6.50829 5.26206C7.07544 5.26206 7.56347 5.6741 7.56347 6.29214Z" fill="#0033FF"/>
</svg>
