<svg width="24" height="24" viewBox="0 0 24 24" fill="none" xmlns="http://www.w3.org/2000/svg">
<path d="M20.1129 4.51205L19.6709 6.11021C19.6475 6.19481 19.5592 6.2437 19.4751 6.2186L12.0611 4.00654C12.0118 3.99183 11.9584 4.00226 11.9183 4.03446L4.57578 9.92265C4.55434 9.93984 4.52876 9.95109 4.50161 9.95528L0.132847 10.6285C0.0519533 10.641 -0.00571993 10.7136 0.000452208 10.7952L0.0194353 11.0463C0.0254982 11.1265 0.0912652 11.189 0.171649 11.1911L5.24614 11.3223L5.30402 11.3239L9.05358 9.32101C9.10607 9.29297 9.16992 9.29708 9.21838 9.33163L11.8748 11.2252C11.9164 11.2549 11.941 11.3031 11.9405 11.3542L11.9181 13.8668C11.9178 13.8993 11.9277 13.9311 11.9463 13.9578L15.683 19.3196C15.7123 19.3616 15.7603 19.3867 15.8116 19.3867H16.9945C17.1125 19.3867 17.1882 19.2612 17.1331 19.1568L14.4697 14.1114C14.4437 14.062 14.4458 14.0025 14.4754 13.9552L15.864 11.7307C15.8791 11.7065 15.9006 11.6869 15.926 11.6739L20.8906 9.15464C20.9411 9.12905 21.0014 9.13262 21.0485 9.16399L22.4672 10.1096C22.4929 10.1268 22.5231 10.1359 22.5541 10.1359H23.843C23.9678 10.1359 24.0426 9.99712 23.9738 9.89293L20.3948 4.46753C20.3207 4.3552 20.1488 4.38235 20.1129 4.51205Z" fill="#0033FF"/>
</svg>
